<svg width="32" height="32" viewBox="0 0 32 32" fill="none" xmlns="http://www.w3.org/2000/svg">
<circle cx="16" cy="16" r="15.5" stroke="#F0F0F0"/>
<g opacity="0.8">
<path d="M8.27525 13.6446H11.801V24.9995H8.27525V13.6446ZM10.0447 8C11.1719 8 12.0894 8.91889 12.0894 10.0478C12.0894 11.1767 11.1719 12.0956 10.0447 12.0956C8.91094 12.0956 8 11.1767 8 10.0478C8 8.91889 8.91094 8 10.0447 8Z" fill="#F2FFFE"/>
<path d="M14.0166 13.6448H17.3917V15.2004H17.4375C17.9094 14.3077 19.0562 13.3691 20.7733 13.3691C24.3384 13.3691 25.0003 15.7189 25.0003 18.7775V24.9997H21.481V19.4798C21.481 18.1605 21.4614 16.4671 19.6526 16.4671C17.8176 16.4671 17.5424 17.9045 17.5424 19.3813V24.9997H14.0232V13.6448H14.0166Z" fill="#F2FFFE"/>
</g>
</svg>
