<svg width="32" height="32" viewBox="0 0 32 32" fill="none" xmlns="http://www.w3.org/2000/svg">
<circle cx="16" cy="16" r="15.5" stroke="#F0F0F0"/>
<path d="M18.043 25.8633C17.9453 25.8672 17.8828 25.875 17.8203 25.875C16.4844 25.875 15.1523 25.8711 13.8164 25.8789C13.6289 25.8789 13.5781 25.8281 13.5781 25.6406C13.582 22.5313 13.582 19.418 13.582 16.3086C13.582 16.2266 13.582 16.1445 13.582 16.0391C12.8555 16.0391 12.1484 16.0391 11.4297 16.0391C11.4297 14.9297 11.4297 13.8399 11.4297 12.7188C11.5039 12.7188 11.5742 12.7188 11.6406 12.7188C12.2266 12.7188 12.8125 12.7149 13.3984 12.7227C13.5469 12.7227 13.5859 12.6797 13.5859 12.5352C13.5781 11.6641 13.5781 10.7891 13.5859 9.91798C13.5898 9.3086 13.6875 8.71485 13.9688 8.16407C14.3711 7.38673 15.0078 6.88282 15.8125 6.57032C16.4687 6.31251 17.1602 6.21876 17.8555 6.20704C18.9883 6.19142 20.1211 6.19923 21.2539 6.19532C21.3594 6.19532 21.4453 6.19142 21.4453 6.33985C21.4414 7.41407 21.4414 8.48829 21.4414 9.56251C21.4414 9.57423 21.4375 9.58595 21.4219 9.63673C21.3555 9.63673 21.2812 9.63673 21.207 9.63673C20.5039 9.63673 19.8008 9.63282 19.0977 9.63673C18.6914 9.63673 18.3633 9.80079 18.1563 10.1563C18.0938 10.2617 18.0547 10.3984 18.0547 10.5234C18.043 11.1875 18.0547 11.8516 18.0469 12.5156C18.0469 12.6719 18.0937 12.7149 18.2461 12.7149C19.2227 12.707 20.1992 12.7109 21.1758 12.7109C21.2539 12.7109 21.3281 12.7109 21.4609 12.7109C21.3242 13.8281 21.1914 14.9219 21.0547 16.0274C20.0391 16.0274 19.0508 16.0274 18.043 16.0274C18.043 19.3125 18.043 22.5781 18.043 25.8633Z" fill="#F2FFFE"/>
</svg>
