<svg width="32" height="32" viewBox="0 0 32 32" fill="none" xmlns="http://www.w3.org/2000/svg">
<circle cx="16" cy="16" r="15.5" stroke="#F0F0F0"/>
<g clip-path="url(#clip0_701_38)">
<path d="M25.7266 16.039C25.7266 17.3984 25.6992 18.7617 25.7344 20.1211C25.793 22.5273 24.2813 24.3867 22.3555 25.2148C21.582 25.5468 20.7695 25.7226 19.9297 25.7226C17.3008 25.7265 14.668 25.7617 12.0391 25.7109C10.0586 25.6719 8.42969 24.8437 7.26172 23.2109C6.64844 22.3515 6.35547 21.375 6.35547 20.3164C6.35547 17.5156 6.35547 14.7187 6.35547 11.9179C6.35547 9.63279 7.46875 8.03513 9.44531 6.99607C10.3047 6.54685 11.2383 6.35544 12.2109 6.35154C14.7617 6.35154 17.3164 6.33591 19.8672 6.35935C21.8477 6.37498 23.5 7.13279 24.7188 8.72654C25.3984 9.61716 25.7266 10.6406 25.7266 11.7656C25.7266 13.1875 25.7266 14.6133 25.7266 16.039ZM7.79688 16.039C7.79688 17.4726 7.79688 18.9023 7.79688 20.3359C7.79688 20.9765 7.94531 21.5781 8.27734 22.1211C9.14844 23.5469 10.4648 24.2422 12.0977 24.2695C14.7187 24.3086 17.3438 24.2851 19.9688 24.2773C20.6133 24.2773 21.2383 24.1445 21.8203 23.8672C23.4062 23.1093 24.293 21.9023 24.2852 20.0898C24.2695 17.3164 24.2812 14.5429 24.2812 11.7695C24.2812 10.9844 24.0586 10.2656 23.5937 9.63279C22.6953 8.41794 21.4531 7.82029 19.9688 7.80466C17.3516 7.77341 14.7344 7.79294 12.1172 7.79685C11.5586 7.79685 11.0195 7.91013 10.4961 8.10544C9.05859 8.6406 7.72266 9.99607 7.78516 11.9922C7.83203 13.3437 7.79688 14.6914 7.79688 16.039Z" fill="#F2FFFE"/>
<path d="M16.0625 20.1797C13.543 20.1797 11.5117 18.1719 11.5078 15.6719C11.5039 13.2109 13.5508 11.1953 16.0547 11.1953C18.5664 11.1914 20.6055 13.2031 20.6094 15.6836C20.6094 18.1602 18.5742 20.1758 16.0625 20.1797ZM16.0625 18.7344C17.7773 18.7344 19.168 17.3633 19.1641 15.6758C19.1602 14.0039 17.7695 12.6367 16.0625 12.6367C14.3477 12.6367 12.9492 14 12.9492 15.6836C12.9531 17.3711 14.3477 18.7383 16.0625 18.7344Z" fill="#F2FFFE"/>
<path d="M21.1367 9.82812C21.6641 9.82812 22.0938 10.2773 22.0938 10.8281C22.0899 11.3789 21.6563 11.8242 21.1289 11.8203C20.6094 11.8164 20.1836 11.3711 20.1836 10.832C20.1797 10.2812 20.6094 9.82812 21.1367 9.82812Z" fill="#F2FFFE"/>
</g>
<defs>
<clipPath id="clip0_701_38">
<rect width="20" height="20" fill="white" transform="translate(6 6)"/>
</clipPath>
</defs>
</svg>
