<svg width="22" height="34" viewBox="0 0 22 34" fill="none" xmlns="http://www.w3.org/2000/svg">
<path d="M11 34L10.4107 33.2093C10.0179 32.6342 0 19.7674 0 12.0761C0 5.39113 4.97619 0 11 0C17.0238 0 22 5.46301 22 12.0761C22 19.7674 11.9821 32.7061 11.5893 33.2093L11 34ZM11 1.65329C5.76191 1.65329 1.57143 6.32559 1.57143 12.0042C1.57143 18.0423 8.83929 28.3213 11 31.2685C13.1607 28.3213 20.4286 18.1142 20.4286 12.0042C20.4286 6.32559 16.2381 1.65329 11 1.65329Z" fill="#000"/>
<path d="M11 16.6764C8.70838 16.6764 6.80957 14.5919 6.80957 12.076C6.80957 9.56017 8.70838 7.47559 11 7.47559C13.2917 7.47559 15.1905 9.56017 15.1905 12.076C15.1905 14.5919 13.2917 16.6764 11 16.6764ZM11 9.20076C9.55957 9.20076 8.38099 10.4946 8.38099 12.076C8.38099 13.6574 9.55957 14.9513 11 14.9513C12.4405 14.9513 13.6191 13.6574 13.6191 12.076C13.6191 10.4946 12.4405 9.20076 11 9.20076Z" fill="#000"/>
</svg>
